<svg width="164" height="97" viewBox="0 0 164 97" fill="none" xmlns="http://www.w3.org/2000/svg">
<path d="M120.804 45.5248C108.727 53.0917 88.4988 63.6681 60.0284 71.6778H60.0268C59.7742 71.5679 59.6381 71.5073 59.6381 71.5073C59.6381 71.5073 53.6456 67.4171 52.8797 60.721C52.163 54.4611 55.1544 49.118 55.1544 49.118C55.1544 49.118 56.4286 46.4464 60.6155 42.6679C64.0727 39.547 70.3342 37.0853 73.3239 35.9767C74.1308 35.6766 74.9459 35.4092 75.7724 35.1698C77.2714 34.7336 80.9893 33.5183 86.4226 30.855C93.6304 27.3273 93.9895 23.3487 93.9895 23.3487C93.9895 23.3487 94.7374 20.5984 93.3926 17.935C92.0461 15.2733 88.5267 13.589 88.5267 13.589C88.5267 13.589 79.9151 9.52184 72.2595 16.3016C64.604 23.0797 65.3994 34.9205 65.3994 34.9205C46.0212 43.7142 48.6518 61.1179 48.6518 61.1179C48.6518 61.1179 32.501 63.9895 28.2567 46.6449C25.1932 34.1333 33.3079 23.3241 38.0672 18.2729C38.1164 18.222 38.1656 18.1696 38.2148 18.1204C39.184 17.1298 40.1894 16.172 41.2258 15.2487C41.2324 15.2438 41.2373 15.2389 41.2439 15.2323H41.2455C47.2168 9.922 54.2491 5.77772 61.9882 3.16356C61.8636 3.2308 57.8751 5.47596 53.5963 11.7932C50.0638 17.0101 48.8223 22.4893 48.4812 24.3606C48.327 25.2068 48.1106 26.0416 47.817 26.8501C47.5956 27.4552 47.3004 28.1719 46.9183 28.9394C46.5608 29.6545 46.1524 30.2596 45.767 30.75C44.8765 31.8783 43.6563 32.7164 42.2607 33.0608C42.0475 33.1132 41.8294 33.1542 41.6145 33.1788C41.4866 33.192 41.3652 33.2149 41.2537 33.2428C40.4108 33.4544 39.8171 34.1973 39.7006 35.0583C39.6006 35.793 39.6908 36.8295 40.8158 37.2756C41.895 37.702 43.4251 37.2936 44.5025 36.8836C45.3783 36.5507 46.1901 36.0767 46.9084 35.4765C48.0679 34.5089 49.8572 32.7016 50.9232 30.0924C51.9777 27.5126 52.4992 25.479 52.7403 24.3245C53.106 22.5779 53.6046 20.8608 54.2737 19.206C55.3167 16.6247 57.1715 13.4431 59.5758 10.7584C63.7824 6.06144 69.9045 2.95036 69.9045 2.95036C69.9045 2.95036 75.9643 0 81.8749 0C82.6407 0 83.4017 0.02788 84.161 0.0656C88.5513 0.3608 98.7701 1.89256 104.513 9.60056C111.971 19.6078 106.586 29.338 106.586 29.338C106.586 29.338 104.933 33.128 99.8771 36.6556C94.8243 40.1833 88.9023 42.248 88.9023 42.248C88.9023 42.248 81.4271 45.1787 79.7215 45.6871C78.0159 46.1955 74.9081 47.6617 74.9081 47.6617C74.9081 47.6617 69.6437 50.084 69.6437 53.523C69.6437 56.9621 73.1419 58.7874 73.1419 58.7874C73.1419 58.7874 77.1959 60.8801 83.3705 59.1154C89.4779 57.3705 95.6328 51.5485 95.6328 51.5485C95.6328 51.5485 102.124 45.0902 105.922 43.4764C109.72 41.8594 112.62 42.13 112.62 42.13C112.62 42.13 117.022 42.1316 120.804 45.5248Z" fill="#4D6A8A"/>
<path d="M134.261 35.9308C134.261 35.9308 131.04 38.7844 124.574 43.0894C119.692 37.7381 111.752 37.8529 111.752 37.8529C111.752 37.8529 109.758 37.8529 109.019 36.3556C108.279 34.8615 109.286 33.2461 109.286 33.2461C109.286 33.2461 109.87 32.1687 110.827 30.5549C111.784 28.9379 112.61 23.9949 112.61 23.9949C112.61 23.9949 113.369 19.4882 111.055 12.9101C108.938 6.87986 105.876 5.22346 105.379 4.9873C110.562 7.24558 115.365 10.2091 119.67 13.758C119.67 13.758 119.698 13.781 119.752 13.8236C119.764 13.8335 119.775 13.8417 119.79 13.8548C119.821 13.8827 119.854 13.9089 119.884 13.9319C119.948 13.986 120.008 14.0368 120.069 14.086C120.12 14.1303 120.172 14.1729 120.221 14.2156C120.266 14.2549 120.31 14.2927 120.359 14.3353C121.456 15.2963 123.669 17.3988 125.532 20.2081C128.123 24.1163 127.905 27.4848 127.905 27.4848C129.248 28.764 132.146 30.8189 134.263 35.9308H134.261Z" fill="#4D6A8A"/>
<path d="M136.469 54.5759C134.757 65.7065 126.348 66.8906 126.348 66.8906C126.348 66.8906 126.168 69.0439 124.523 73.0521C122.878 77.0603 119.072 79.8417 119.072 79.8417C119.072 79.8417 114.685 83.5694 108.782 84.4255C102.882 85.2832 99.5705 83.7301 99.5705 83.7301C99.9855 86.5591 101.578 88.7043 102.696 89.9031C103.164 90.4049 103.685 90.851 104.238 91.2544C104.81 91.6726 105.826 92.5041 106.07 93.2995C106.414 94.4197 105.681 95.361 105.681 95.361C105.681 95.361 104.763 97.3257 100.625 96.7074C96.6185 96.1088 93.7781 93.4176 93.7781 93.4176C93.7781 93.4176 92.553 92.3401 91.3558 91.1429C90.3554 90.1458 85.6666 84.5993 84.1464 82.797C83.7921 82.3771 83.3969 81.9967 82.9623 81.6637L82.9475 81.6523C114.426 70.2149 135.705 55.1138 136.466 54.5742L136.469 54.5759Z" fill="#4D6A8A"/>
<path d="M14.1396 74.1004C14.1396 74.1004 4.63093 70.7581 9.23605 60.3162C13.8412 49.8743 24.0485 42.8584 24.0485 42.8584C24.0485 42.8584 24.3273 47.6423 26.4003 51.9899C26.4003 51.9899 8.99497 65.0689 14.138 74.1004H14.1396Z" fill="#E86B42"/>
<path d="M150.394 16.559C148.419 7.17003 121.863 10.9371 121.863 10.9371C115.104 5.31519 111.096 3.85067 111.096 3.85067C118.365 2.11555 125.571 1.66783 125.571 1.66783C125.571 1.66783 138.911 0.35091 146.386 4.95931C153.864 9.56771 150.394 16.5607 150.394 16.5607V16.559Z" fill="#E86B42"/>
<path d="M157.869 30.6956C157.869 30.6956 147.862 44.3929 125.65 57.4505C103.439 70.5115 84.2299 77.5881 84.2299 77.5881C84.2299 77.5881 50.1671 90.8262 22.6528 89.5519C-4.8598 88.276 0.402959 70.81 0.402959 70.81C0.402959 70.81 1.63952 65.3865 5.14748 60.7453C5.0212 61.0995 -1.00252 78.3228 25.1276 79.8185C51.525 81.3339 85.8174 66.8199 85.8174 66.8199C85.8174 66.8199 119.142 54.141 141.638 33.9641C164.132 13.7872 150.514 3.61099 150.514 3.61099C150.514 3.61099 147.823 1.54787 145.669 0.619629C145.669 0.619629 161.061 2.50235 163.532 11.7536C166.005 21.0048 157.869 30.6939 157.869 30.6939V30.6956Z" fill="#E86B42"/>
</svg>
