<svg width="752" height="230" viewBox="0 0 752 230" fill="none" xmlns="http://www.w3.org/2000/svg">
<g clip-path="url(#clip0_473_4348)">
<path d="M741.292 107.239C734.148 94.9393 724.522 85.2224 712.392 78.0886C700.262 70.9549 686.576 67.3955 671.31 67.3955C656.045 67.3955 642.313 70.9549 630.093 78.0886C617.866 85.2224 608.188 94.9393 601.044 107.239C593.9 119.547 590.335 133.417 590.335 148.848C590.335 164.28 593.614 178.096 600.164 190.306C606.714 202.509 615.67 212.181 627.018 219.307C638.358 226.441 651.164 230 665.452 230C679.74 230 692.547 226.441 703.895 219.307C710.866 214.922 716.934 209.583 722.085 203.282V214.186C722.085 218.489 723.499 222.055 726.334 224.879C729.169 227.71 732.741 229.129 737.043 229.129C741.344 229.129 744.916 227.71 747.751 224.879C750.586 222.055 752.008 218.481 752.008 214.186V148.856C752.008 133.424 748.443 119.555 741.299 107.247L741.292 107.239ZM716.498 176.82C712.001 185.125 705.842 191.673 698.014 196.449C690.193 201.24 681.289 203.628 671.31 203.628C661.331 203.628 652.676 201.232 644.757 196.449C636.839 191.673 630.582 185.125 625.987 176.82C621.385 168.53 619.092 159.203 619.092 148.848C619.092 138.493 621.378 128.874 625.987 120.568C630.582 112.271 636.839 105.73 644.757 100.947C652.676 96.1558 661.527 93.7679 671.31 93.7679C681.094 93.7679 690.193 96.1633 698.014 100.947C705.835 105.738 712.001 112.271 716.498 120.568C721.003 128.874 723.251 138.298 723.251 148.848C723.251 159.399 721.003 168.53 716.498 176.82Z" fill="#4D6A8A"/>
<path d="M579.183 86.1381C578.596 88.879 577.468 90.9741 575.806 92.4384C574.144 93.9027 572.242 94.8338 570.091 95.2243C567.933 95.6148 565.587 95.5171 563.045 94.9314C550.517 92.3858 539.282 92.1981 529.303 94.3457C519.331 96.5008 511.45 100.503 505.682 106.353C499.907 112.21 497.019 119.637 497.019 128.618V214.17C497.019 218.856 495.801 222.476 493.35 225.014C490.906 227.559 487.236 228.821 482.348 228.821C477.46 228.821 474.031 227.604 471.489 225.156C468.947 222.716 467.676 219.051 467.676 214.163V83.217C467.676 78.5313 468.955 74.9193 471.489 72.3737C474.031 69.8356 477.655 68.5665 482.348 68.5665C487.04 68.5665 490.898 69.7905 493.35 72.231C495.794 74.6715 497.019 78.3435 497.019 83.2245V88.6612C501.779 83.2546 507.457 78.704 514.045 75.017C523.828 69.5503 534.582 66.8169 546.32 66.8169C558.059 66.8169 566.812 68.7242 572.573 72.5314C578.348 76.3311 580.544 80.8817 579.175 86.1456L579.183 86.1381Z" fill="#4D6A8A"/>
<path d="M412.382 107.239C405.238 94.9393 395.612 85.2224 383.482 78.0886C371.353 70.9549 357.666 67.3955 342.401 67.3955C327.135 67.3955 313.404 70.9549 301.184 78.0886C288.956 85.2224 279.278 94.9393 272.134 107.239C264.99 119.547 261.425 133.417 261.425 148.848C261.425 164.28 264.704 178.096 271.254 190.306C277.804 202.509 286.76 212.181 298.1 219.307C309.448 226.441 322.255 230 336.543 230C350.831 230 363.637 226.441 374.977 219.307C381.948 214.937 388.017 209.59 393.168 203.297V214.178C393.168 218.481 394.589 222.048 397.424 224.871C400.26 227.702 403.831 229.122 408.133 229.122C412.434 229.122 416.006 227.702 418.841 224.871C421.676 222.048 423.098 218.474 423.098 214.178V148.848C423.098 133.417 419.533 119.547 412.389 107.239H412.382ZM387.588 176.82C383.091 185.125 376.932 191.673 369.104 196.449C361.283 201.24 352.38 203.628 342.401 203.628C332.422 203.628 323.766 201.232 315.848 196.449C307.929 191.673 301.665 185.125 297.078 176.82C292.475 168.53 290.174 159.203 290.174 148.848C290.174 138.493 292.475 128.874 297.078 120.568C301.665 112.271 307.929 105.73 315.848 100.947C323.766 96.1558 332.617 93.7679 342.401 93.7679C352.184 93.7679 361.283 96.1633 369.104 100.947C376.925 105.738 383.091 112.271 387.588 120.568C392.093 128.874 394.341 138.298 394.341 148.848C394.341 159.399 392.093 168.53 387.588 176.82Z" fill="#4D6A8A"/>
<path d="M249.108 214.178C249.108 218.481 247.243 221.995 243.535 224.729C239.813 227.462 235.023 228.829 229.149 228.829H228.57C219.96 228.829 212.327 226.486 205.687 221.792C199.032 217.107 193.851 210.709 190.136 202.599C186.421 194.496 184.563 185.17 184.563 174.619V14.6505C184.563 10.3627 185.932 6.8409 188.669 4.10754C191.407 1.37419 194.933 0 199.235 0C203.536 0 207.056 1.37419 209.793 4.10754C212.53 6.8409 213.899 10.3627 213.899 14.6505V174.619C213.899 181.851 215.268 187.806 218.005 192.491C220.742 197.177 224.269 199.528 228.57 199.528H235.902C239.813 199.528 242.986 200.894 245.445 203.628C247.882 206.361 249.115 209.883 249.115 214.171L249.108 214.178Z" fill="#4D6A8A"/>
<path d="M148.467 155.426C151.009 152.993 152.272 149.914 152.272 146.197C152.272 130.773 149.385 117.144 143.617 105.324C137.842 93.5123 129.479 84.2384 118.53 77.4951C107.574 70.7518 94.4738 67.3877 79.2082 67.3877C63.9426 67.3877 50.0606 70.857 38.1264 77.7805C26.1997 84.719 16.8598 94.2857 10.1144 106.496C3.37648 118.721 0 132.823 0 148.848C0 164.872 3.56448 178.682 10.7085 190.884C17.8525 203.094 27.7338 212.669 40.3448 219.6C52.9634 226.531 67.3792 229.992 83.6224 229.992C92.6163 229.992 102.054 228.333 111.935 225.014C121.809 221.695 130.073 217.392 136.729 212.128C140.045 209.582 141.617 206.564 141.421 203.042C141.226 199.528 139.466 196.306 136.135 193.377C133.585 191.23 130.607 190.209 127.186 190.306C123.764 190.404 120.583 191.523 117.658 193.67C113.74 196.599 108.611 199.197 102.257 201.442C95.895 203.688 89.6835 204.806 83.6224 204.806C72.4702 204.806 62.5965 202.373 53.9861 197.485C45.3832 192.604 38.6302 185.966 33.7422 177.563C30.4635 171.939 28.2827 165.781 27.2149 159.105H138.782C142.7 159.105 145.926 157.889 148.467 155.433V155.426ZM27.5382 135.654C28.5384 130.06 30.2154 124.833 32.5616 119.982C36.675 111.482 42.691 104.791 50.6096 99.9101C58.5282 95.0292 68.0635 92.5887 79.2082 92.5887C88.9917 92.5887 97.3013 94.8339 104.152 99.3244C110.995 103.822 116.282 109.927 119.997 117.639C122.636 123.129 124.388 129.129 125.238 135.654H27.5382Z" fill="#4D6A8A"/>
</g>
<defs>
<clipPath id="clip0_473_4348">
<rect width="752" height="230" fill="white"/>
</clipPath>
</defs>
</svg>
