<svg width="752" height="444" viewBox="0 0 752 444" fill="none" xmlns="http://www.w3.org/2000/svg">
<path d="M553.928 208.748C498.551 243.445 405.8 291.941 275.252 328.669H275.245C274.087 328.165 273.463 327.887 273.463 327.887C273.463 327.887 245.985 309.132 242.473 278.428C239.186 249.724 252.903 225.224 252.903 225.224C252.903 225.224 258.746 212.974 277.945 195.648C293.797 181.337 322.508 170.05 336.217 164.966C339.917 163.59 343.654 162.364 347.444 161.266C354.318 159.266 371.365 153.694 396.279 141.481C429.33 125.306 430.977 107.062 430.977 107.062C430.977 107.062 434.406 94.4512 428.239 82.2387C422.065 70.0337 405.927 62.3107 405.927 62.3107C405.927 62.3107 366.44 43.6611 331.337 74.7488C296.233 105.829 299.88 160.123 299.88 160.123C211.024 200.446 223.086 280.248 223.086 280.248C223.086 280.248 149.029 293.415 129.567 213.884C115.52 156.514 152.729 106.949 174.552 83.7878C174.778 83.5547 175.003 83.3141 175.229 83.0885C179.673 78.5464 184.283 74.1547 189.036 69.921C189.066 69.8984 189.088 69.8758 189.118 69.8457H189.126C216.506 45.496 248.752 26.493 284.239 14.5061C283.667 14.8144 265.379 25.1093 245.759 54.0763C229.561 77.9974 223.868 103.122 222.304 111.702C221.597 115.582 220.605 119.41 219.258 123.117C218.243 125.892 216.89 129.179 215.137 132.698C213.498 135.977 211.626 138.751 209.858 141C205.775 146.174 200.18 150.016 193.781 151.596C192.803 151.836 191.803 152.024 190.818 152.137C190.231 152.197 189.675 152.303 189.163 152.43C185.298 153.4 182.576 156.807 182.042 160.755C181.583 164.124 181.997 168.877 187.156 170.922C192.104 172.877 199.12 171.005 204.061 169.125C208.076 167.598 211.799 165.425 215.092 162.673C220.409 158.236 228.613 149.949 233.501 137.984C238.337 126.155 240.728 116.831 241.833 111.537C243.51 103.528 245.797 95.6544 248.865 88.0667C253.647 76.2302 262.153 61.6414 273.177 49.3312C292.466 27.7939 320.538 13.5285 320.538 13.5285C320.538 13.5285 348.324 0 375.426 0C378.938 0 382.427 0.12784 385.909 0.3008C406.04 1.6544 452.897 8.67808 479.232 44.0221C513.426 89.9091 488.738 134.525 488.738 134.525C488.738 134.525 481.157 151.904 457.973 168.079C434.804 184.255 407.65 193.723 407.65 193.723C407.65 193.723 373.373 207.161 365.553 209.492C357.732 211.823 343.481 218.546 343.481 218.546C343.481 218.546 319.342 229.653 319.342 245.423C319.342 261.192 335.382 269.562 335.382 269.562C335.382 269.562 353.972 279.157 382.285 271.066C410.289 263.065 438.512 236.369 438.512 236.369C438.512 236.369 468.276 206.755 485.692 199.355C503.108 191.94 516.404 193.181 516.404 193.181C516.404 193.181 536.587 193.189 553.928 208.748Z" fill="#4D6A8A"/>
<path d="M615.638 164.756C615.638 164.756 600.868 177.84 571.217 197.58C548.83 173.043 512.426 173.569 512.426 173.569C512.426 173.569 503.281 173.569 499.89 166.703C496.498 159.853 501.116 152.445 501.116 152.445C501.116 152.445 503.793 147.505 508.184 140.105C512.568 132.69 516.359 110.025 516.359 110.025C516.359 110.025 519.84 89.3601 509.23 59.1974C499.521 31.5464 485.481 23.9512 483.203 22.8683C506.966 33.2233 528.992 46.812 548.732 63.0852C548.732 63.0852 548.86 63.1905 549.108 63.386C549.161 63.4312 549.213 63.4688 549.281 63.5289C549.424 63.6568 549.574 63.7771 549.71 63.8824C550.003 64.1305 550.281 64.3636 550.56 64.5892C550.793 64.7923 551.033 64.9878 551.259 65.1833C551.462 65.3638 551.665 65.5368 551.891 65.7323C556.921 70.139 567.066 79.7796 575.609 92.6614C587.49 110.582 586.49 126.028 586.49 126.028C592.649 131.893 605.937 141.316 615.645 164.756H615.638Z" fill="#4D6A8A"/>
<path d="M625.76 250.25C617.909 301.289 579.354 306.718 579.354 306.718C579.354 306.718 578.526 316.592 570.984 334.971C563.441 353.35 545.987 366.104 545.987 366.104C545.987 366.104 525.871 383.197 498.807 387.122C471.75 391.055 456.567 383.933 456.567 383.933C458.47 396.905 465.772 406.742 470.9 412.239C473.043 414.54 475.435 416.585 477.969 418.435C480.593 420.353 485.248 424.165 486.369 427.813C487.948 432.949 484.587 437.265 484.587 437.265C484.587 437.265 480.375 446.274 461.402 443.439C443.031 440.694 430.006 428.354 430.006 428.354C430.006 428.354 424.389 423.413 418.899 417.924C414.312 413.352 392.813 387.919 385.842 379.655C384.217 377.729 382.405 375.985 380.412 374.458L380.344 374.406C524.683 321.961 622.255 252.717 625.744 250.243L625.76 250.25Z" fill="#4D6A8A"/>
<path d="M64.8352 339.776C64.8352 339.776 21.2343 324.45 42.3504 276.571C63.4666 228.691 110.271 196.52 110.271 196.52C110.271 196.52 111.549 218.456 121.055 238.392C121.055 238.392 41.245 298.364 64.8277 339.776H64.8352Z" fill="#E86B42"/>
<path d="M689.612 75.9295C680.558 32.8775 558.786 50.1509 558.786 50.1509C527.796 24.3724 509.417 17.657 509.417 17.657C542.746 9.70087 575.789 7.64791 575.789 7.64791C575.789 7.64791 636.957 1.60935 671.233 22.7405C705.524 43.8717 689.612 75.937 689.612 75.937V75.9295Z" fill="#E86B42"/>
<path d="M723.888 140.752C723.888 140.752 678.001 203.559 576.15 263.433C474.307 323.322 386.225 355.771 386.225 355.771C386.225 355.771 230.035 416.473 103.872 410.63C-22.284 404.779 1.84772 324.691 1.84772 324.691C1.84772 324.691 7.5178 299.822 23.6031 278.541C23.024 280.165 -4.59692 359.14 115.219 365.998C236.261 372.947 393.504 306.395 393.504 306.395C393.504 306.395 546.311 248.258 649.462 155.739C752.607 63.2207 690.161 16.5591 690.161 16.5591C690.161 16.5591 677.82 7.09897 667.947 2.84265C667.947 2.84265 738.522 11.4756 749.854 53.8959C761.195 96.3162 723.888 140.744 723.888 140.744V140.752Z" fill="#E86B42"/>
</svg>
