<svg width="15" height="12" viewBox="0 0 15 12" fill="none" xmlns="http://www.w3.org/2000/svg">
<path d="M13.3333 0.333333C12.5933 0.1 11.78 0 11 0C9.7 0 8.3 0.266667 7.33333 1C6.36667 0.266667 4.96667 0 3.66667 0C2.36667 0 0.966667 0.266667 0 1V10.7667C0 10.9333 0.166667 11.1 0.333333 11.1C0.4 11.1 0.433333 11.0667 0.5 11.0667C1.4 10.6333 2.7 10.3333 3.66667 10.3333C4.96667 10.3333 6.36667 10.6 7.33333 11.3333C8.23333 10.7667 9.86667 10.3333 11 10.3333C12.1 10.3333 13.2333 10.5333 14.1667 11.0333C14.2333 11.0667 14.2667 11.0667 14.3333 11.0667C14.5 11.0667 14.6667 10.9 14.6667 10.7333V1C14.2667 0.7 13.8333 0.5 13.3333 0.333333ZM13.3333 9.33333C12.6 9.1 11.8 9 11 9C9.86667 9 8.23333 9.43333 7.33333 10V2.33333C8.23333 1.76667 9.86667 1.33333 11 1.33333C11.8 1.33333 12.6 1.43333 13.3333 1.66667V9.33333Z" fill="#FFFFFF"/>
<path d="M11 4C11.5867 4 12.1533 4.06 12.6667 4.17333V3.16C12.14 3.06 11.5733 3 11 3C9.86667 3 8.84 3.19333 8 3.55333V4.66C8.75333 4.23333 9.8 4 11 4Z" fill="#FFFFFF"/>
<path d="M8 5.32677V6.43344C8.75333 6.00677 9.8 5.77344 11 5.77344C11.5867 5.77344 12.1533 5.83344 12.6667 5.94677V4.93344C12.14 4.83344 11.5733 4.77344 11 4.77344C9.86667 4.77344 8.84 4.97344 8 5.32677Z" fill="#FFFFFF"/>
<path d="M11 6.55322C9.86667 6.55322 8.84 6.74656 8 7.10656V8.21322C8.75333 7.78656 9.8 7.55322 11 7.55322C11.5867 7.55322 12.1533 7.61322 12.6667 7.72656V6.71322C12.14 6.60656 11.5733 6.55322 11 6.55322Z" fill="#FFFFFF"/>
</svg>
