<svg width="20" height="20" viewBox="0 0 20 20" fill="none" xmlns="http://www.w3.org/2000/svg">
<g clip-path="url(#clip0_1286_6292)">
<path d="M10 12.5C11.3807 12.5 12.5 11.3807 12.5 10C12.5 8.61929 11.3807 7.5 10 7.5C8.61929 7.5 7.5 8.61929 7.5 10C7.5 11.3807 8.61929 12.5 10 12.5Z" fill="#4D6A8A"/>
<path d="M16.6665 3.33341H14.0248L12.9915 2.20841C12.6832 1.86675 12.2332 1.66675 11.7665 1.66675H8.23317C7.7665 1.66675 7.3165 1.86675 6.99984 2.20841L5.97484 3.33341H3.33317C2.4165 3.33341 1.6665 4.08341 1.6665 5.00008V15.0001C1.6665 15.9167 2.4165 16.6667 3.33317 16.6667H16.6665C17.5832 16.6667 18.3332 15.9167 18.3332 15.0001V5.00008C18.3332 4.08341 17.5832 3.33341 16.6665 3.33341ZM9.99984 14.1667C7.69984 14.1667 5.83317 12.3001 5.83317 10.0001C5.83317 7.70008 7.69984 5.83341 9.99984 5.83341C12.2998 5.83341 14.1665 7.70008 14.1665 10.0001C14.1665 12.3001 12.2998 14.1667 9.99984 14.1667Z" fill="#4D6A8A"/>
</g>
<defs>
<clipPath id="clip0_1286_6292">
<rect width="20" height="20" fill="white"/>
</clipPath>
</defs>
</svg>
