<svg width="20" height="20" viewBox="0 0 20 20" fill="none" xmlns="http://www.w3.org/2000/svg">
<g clip-path="url(#clip0_1306_1700)">
<path d="M7.50002 9.79175C6.92502 9.79175 6.45835 10.2584 6.45835 10.8334C6.45835 11.4084 6.92502 11.8751 7.50002 11.8751C8.07502 11.8751 8.54169 11.4084 8.54169 10.8334C8.54169 10.2584 8.07502 9.79175 7.50002 9.79175ZM12.5 9.79175C11.925 9.79175 11.4584 10.2584 11.4584 10.8334C11.4584 11.4084 11.925 11.8751 12.5 11.8751C13.075 11.8751 13.5417 11.4084 13.5417 10.8334C13.5417 10.2584 13.075 9.79175 12.5 9.79175ZM10 1.66675C5.40002 1.66675 1.66669 5.40008 1.66669 10.0001C1.66669 14.6001 5.40002 18.3334 10 18.3334C14.6 18.3334 18.3334 14.6001 18.3334 10.0001C18.3334 5.40008 14.6 1.66675 10 1.66675ZM10 16.6667C6.32502 16.6667 3.33335 13.6751 3.33335 10.0001C3.33335 9.75841 3.35002 9.51675 3.37502 9.28341C5.34169 8.40841 6.90002 6.80008 7.71669 4.80841C9.22502 6.94175 11.7084 8.33341 14.5167 8.33341C15.1667 8.33341 15.7917 8.25841 16.3917 8.11675C16.5667 8.70841 16.6667 9.34175 16.6667 10.0001C16.6667 13.6751 13.675 16.6667 10 16.6667Z" fill="white"/>
</g>
<defs>
<clipPath id="clip0_1306_1700">
<rect width="20" height="20" fill="white"/>
</clipPath>
</defs>
</svg>
