<svg width="20" height="20" viewBox="0 0 20 20" fill="none" xmlns="http://www.w3.org/2000/svg">
<path d="M20 10.0122C20 4.48939 15.5228 0.012207 10 0.012207C4.47719 0.012207 0 4.48939 0 10.0122C0 15.0035 3.65687 19.1406 8.4375 19.8907V12.9028H5.89844V10.0122H8.4375V7.80908C8.4375 5.30283 9.93047 3.91846 12.2147 3.91846C13.3088 3.91846 14.4531 4.11377 14.4531 4.11377V6.57471H13.1922C11.9499 6.57471 11.5625 7.34557 11.5625 8.13643V10.0122H14.3359L13.8926 12.9028H11.5625V19.8907C16.3431 19.1406 20 15.0035 20 10.0122Z" fill="#1877F2"/>
<path d="M13.8926 12.8906L14.3359 10H11.5625V8.12422C11.5625 7.33328 11.9499 6.5625 13.1922 6.5625H14.4531V4.10156C14.4531 4.10156 13.3088 3.90625 12.2146 3.90625C9.93047 3.90625 8.4375 5.29063 8.4375 7.79688V10H5.89844V12.8906H8.4375V19.8785C8.95439 19.9595 9.4768 20.0001 10 20C10.5232 20.0001 11.0456 19.9595 11.5625 19.8785V12.8906H13.8926Z" fill="white"/>
</svg>
