<svg width="20" height="20" viewBox="0 0 20 20" fill="none" xmlns="http://www.w3.org/2000/svg">
<path opacity="0.987" fill-rule="evenodd" clip-rule="evenodd" d="M8.51399 0.0867926C9.54978 -0.0289309 10.1627 -0.0289309 11.2756 0.0867926C13.2457 0.37838 15.072 1.28901 16.4903 2.687C15.5319 3.59298 14.586 4.51219 13.653 5.44436C11.8662 3.92995 9.87171 3.5804 7.66964 4.3957C6.05427 5.13862 4.92942 6.34252 4.29508 8.00742C3.25849 7.23569 2.2354 6.44598 1.22627 5.63866C1.15614 5.60174 1.07604 5.58823 0.997681 5.60008C2.60066 2.50936 5.10562 0.671124 8.51256 0.0853638" fill="#F44336"/>
<path opacity="0.997" fill-rule="evenodd" clip-rule="evenodd" d="M0.994724 5.60026C1.07568 5.58788 1.15236 5.60073 1.22474 5.63883C2.23387 6.44615 3.25696 7.23586 4.29356 8.00759C4.13044 8.6563 4.02761 9.31869 3.98639 9.98632C4.02163 10.6321 4.12402 11.2659 4.29356 11.8879L1.07187 14.4524C-0.331095 11.5207 -0.356811 8.57002 0.994724 5.60026Z" fill="#FEC007"/>
<path opacity="0.999" fill-rule="evenodd" clip-rule="evenodd" d="M16.3374 17.5584C15.3343 16.6737 14.2841 15.8438 13.1915 15.0724C14.2868 14.2991 14.9516 13.238 15.1859 11.8893H9.81836V8.1619C12.9138 8.13618 16.0079 8.16238 19.1005 8.24048C19.6872 11.4264 19.0096 14.2991 17.0675 16.8583C16.8366 17.1038 16.592 17.3374 16.3374 17.5584Z" fill="#448AFF"/>
<path opacity="0.993" fill-rule="evenodd" clip-rule="evenodd" d="M4.29358 11.8892C5.4651 14.8008 7.61289 16.16 10.7369 15.9666C11.6139 15.8651 12.4547 15.5587 13.1914 15.0723C14.2848 15.8457 15.3335 16.6743 16.3374 17.5582C14.7468 18.9875 12.7187 19.8356 10.5841 19.9641C10.0991 20.0029 9.6118 20.0029 9.12682 19.9641C5.49034 19.5355 2.80537 17.6982 1.0719 14.4522L4.29358 11.8892Z" fill="#43A047"/>
</svg>
