<svg width="20" height="20" viewBox="0 0 20 20" fill="none" xmlns="http://www.w3.org/2000/svg">
<g clip-path="url(#clip0_1430_10741)">
<path d="M11.0501 2.49998C6.80844 2.38331 3.33344 5.79165 3.33344 9.99998H1.84177C1.46677 9.99998 1.28344 10.45 1.55011 10.7083L3.87511 13.0416C4.04177 13.2083 4.30011 13.2083 4.46677 13.0416L6.79177 10.7083C7.05011 10.45 6.86677 9.99998 6.49177 9.99998H5.00011C5.00011 6.74998 7.65011 4.12498 10.9168 4.16665C14.0168 4.20831 16.6251 6.81665 16.6668 9.91665C16.7084 13.175 14.0834 15.8333 10.8334 15.8333C9.49177 15.8333 8.25011 15.375 7.26677 14.6C6.93344 14.3416 6.46677 14.3666 6.16677 14.6666C5.81677 15.0166 5.84177 15.6083 6.23344 15.9083C7.50011 16.9083 9.09177 17.5 10.8334 17.5C15.0418 17.5 18.4501 14.025 18.3334 9.78331C18.2251 5.87498 14.9584 2.60831 11.0501 2.49998ZM10.6251 6.66665C10.2834 6.66665 10.0001 6.94998 10.0001 7.29165V10.3583C10.0001 10.65 10.1584 10.925 10.4084 11.075L13.0084 12.6166C13.3084 12.7916 13.6918 12.6916 13.8668 12.4C14.0418 12.1 13.9418 11.7166 13.6501 11.5416L11.2501 10.1166V7.28331C11.2501 6.94998 10.9668 6.66665 10.6251 6.66665Z" fill="#CBD5E1"/>
</g>
<defs>
<clipPath id="clip0_1430_10741">
<rect width="20" height="20" fill="white"/>
</clipPath>
</defs>
</svg>
