<svg width="17" height="15" viewBox="0 0 17 15" fill="none" xmlns="http://www.w3.org/2000/svg">
<path d="M6.91667 3.91667C6.59167 4.24167 6.59167 4.75833 6.91667 5.08333L8.5 6.66667H0.833333C0.375 6.66667 0 7.04167 0 7.5C0 7.95833 0.375 8.33333 0.833333 8.33333H8.5L6.91667 9.91667C6.59167 10.2417 6.59167 10.7583 6.91667 11.0833C7.24167 11.4083 7.75833 11.4083 8.08333 11.0833L11.075 8.09167C11.4 7.76667 11.4 7.24167 11.075 6.91667L8.08333 3.91667C7.75833 3.59167 7.24167 3.59167 6.91667 3.91667ZM15 13.3333H9.16667C8.70833 13.3333 8.33333 13.7083 8.33333 14.1667C8.33333 14.625 8.70833 15 9.16667 15H15C15.9167 15 16.6667 14.25 16.6667 13.3333V1.66667C16.6667 0.75 15.9167 0 15 0H9.16667C8.70833 0 8.33333 0.375 8.33333 0.833333C8.33333 1.29167 8.70833 1.66667 9.16667 1.66667H15V13.3333Z" fill="#FFFFFF"/>
</svg>
