<svg width="15" height="12" viewBox="0 0 15 12" fill="none" xmlns="http://www.w3.org/2000/svg">
    <path
        d="M0.833333 7.5H2.5C2.95833 7.5 3.33333 7.125 3.33333 6.66667V5C3.33333 4.54167 2.95833 4.16667 2.5 4.16667H0.833333C0.375 4.16667 0 4.54167 0 5V6.66667C0 7.125 0.375 7.5 0.833333 7.5ZM0.833333 11.6667H2.5C2.95833 11.6667 3.33333 11.2917 3.33333 10.8333V9.16667C3.33333 8.70833 2.95833 8.33333 2.5 8.33333H0.833333C0.375 8.33333 0 8.70833 0 9.16667V10.8333C0 11.2917 0.375 11.6667 0.833333 11.6667ZM0.833333 3.33333H2.5C2.95833 3.33333 3.33333 2.95833 3.33333 2.5V0.833333C3.33333 0.375 2.95833 0 2.5 0H0.833333C0.375 0 0 0.375 0 0.833333V2.5C0 2.95833 0.375 3.33333 0.833333 3.33333ZM5 7.5H13.3333C13.7917 7.5 14.1667 7.125 14.1667 6.66667V5C14.1667 4.54167 13.7917 4.16667 13.3333 4.16667H5C4.54167 4.16667 4.16667 4.54167 4.16667 5V6.66667C4.16667 7.125 4.54167 7.5 5 7.5ZM5 11.6667H13.3333C13.7917 11.6667 14.1667 11.2917 14.1667 10.8333V9.16667C14.1667 8.70833 13.7917 8.33333 13.3333 8.33333H5C4.54167 8.33333 4.16667 8.70833 4.16667 9.16667V10.8333C4.16667 11.2917 4.54167 11.6667 5 11.6667ZM4.16667 0.833333V2.5C4.16667 2.95833 4.54167 3.33333 5 3.33333H13.3333C13.7917 3.33333 14.1667 2.95833 14.1667 2.5V0.833333C14.1667 0.375 13.7917 0 13.3333 0H5C4.54167 0 4.16667 0.375 4.16667 0.833333Z"
        fill="#F8FAFC" />
</svg>
