<svg width="140" height="44" viewBox="0 0 140 44" fill="none" xmlns="http://www.w3.org/2000/svg">
<path d="M0 22C0 9.84974 9.84974 0 22 0C34.1503 0 44 9.84974 44 22C44 34.1503 34.1503 44 22 44C9.84974 44 0 34.1503 0 22Z" fill="#10B981"/>
<g clip-path="url(#clip0_1905_9245)">
<path d="M19.5 21.9998C21.1083 21.9998 22.4166 20.6915 22.4166 19.0832C22.4166 17.4748 21.1083 16.1665 19.5 16.1665C17.8916 16.1665 16.5833 17.4748 16.5833 19.0832C16.5833 20.6915 17.8916 21.9998 19.5 21.9998ZM19.5 17.8332C20.1916 17.8332 20.75 18.3915 20.75 19.0832C20.75 19.7748 20.1916 20.3332 19.5 20.3332C18.8083 20.3332 18.25 19.7748 18.25 19.0832C18.25 18.3915 18.8083 17.8332 19.5 17.8332ZM19.5 23.4582C17.55 23.4582 13.6666 24.4332 13.6666 26.3748V26.9998C13.6666 27.4582 14.0416 27.8332 14.5 27.8332H24.5C24.9583 27.8332 25.3333 27.4582 25.3333 26.9998V26.3748C25.3333 24.4332 21.45 23.4582 19.5 23.4582ZM15.6166 26.1665C16.3166 25.6832 18.0083 25.1248 19.5 25.1248C20.9916 25.1248 22.6833 25.6832 23.3833 26.1665H15.6166ZM25.3666 23.5082C26.3333 24.2082 27 25.1415 27 26.3748V27.8332H29.5C29.9583 27.8332 30.3333 27.4582 30.3333 26.9998V26.3748C30.3333 24.6915 27.4166 23.7332 25.3666 23.5082ZM24.5 21.9998C26.1083 21.9998 27.4166 20.6915 27.4166 19.0832C27.4166 17.4748 26.1083 16.1665 24.5 16.1665C24.05 16.1665 23.6333 16.2748 23.25 16.4582C23.775 17.1998 24.0833 18.1082 24.0833 19.0832C24.0833 20.0582 23.775 20.9665 23.25 21.7082C23.6333 21.8915 24.05 21.9998 24.5 21.9998Z" fill="#F8FAFC"/>
</g>
<path d="M58.144 18.112C57.8773 18.112 57.6693 18.0373 57.52 17.888C57.3813 17.7387 57.312 17.5307 57.312 17.264V7.568C57.312 7.29067 57.3867 7.08267 57.536 6.944C57.6853 6.79467 57.8933 6.72 58.16 6.72H61.984C63.2 6.72 64.1387 7.024 64.8 7.632C65.4613 8.22933 65.792 9.072 65.792 10.16C65.792 11.2587 65.4613 12.112 64.8 12.72C64.1387 13.3173 63.2 13.616 61.984 13.616H58.976V17.264C58.976 17.5307 58.9067 17.7387 58.768 17.888C58.6293 18.0373 58.4213 18.112 58.144 18.112ZM58.976 12.288H61.744C62.544 12.288 63.1467 12.112 63.552 11.76C63.968 11.3973 64.176 10.864 64.176 10.16C64.176 9.46667 63.968 8.944 63.552 8.592C63.1467 8.22933 62.544 8.048 61.744 8.048H58.976V12.288ZM69.507 18.144C68.963 18.144 68.4723 18.0373 68.035 17.824C67.6083 17.6107 67.2723 17.3227 67.027 16.96C66.7817 16.5973 66.659 16.1867 66.659 15.728C66.659 15.152 66.803 14.6987 67.091 14.368C67.3897 14.0267 67.875 13.7867 68.547 13.648C69.2297 13.4987 70.147 13.424 71.299 13.424H72.051V14.416H71.315C70.547 14.416 69.939 14.4533 69.491 14.528C69.043 14.6027 68.723 14.7307 68.531 14.912C68.3497 15.0827 68.259 15.3227 68.259 15.632C68.259 16.0373 68.3977 16.368 68.675 16.624C68.9523 16.8693 69.3363 16.992 69.827 16.992C70.2217 16.992 70.5683 16.9013 70.867 16.72C71.1657 16.528 71.4003 16.272 71.571 15.952C71.7523 15.632 71.843 15.264 71.843 14.848V13.008C71.843 12.4 71.715 11.9627 71.459 11.696C71.203 11.4293 70.7817 11.296 70.195 11.296C69.8537 11.296 69.4963 11.3387 69.123 11.424C68.7603 11.5093 68.3817 11.6533 67.987 11.856C67.8057 11.9413 67.651 11.968 67.523 11.936C67.395 11.904 67.2937 11.8347 67.219 11.728C67.1443 11.6107 67.1017 11.488 67.091 11.36C67.091 11.2213 67.123 11.088 67.187 10.96C67.2617 10.832 67.3843 10.736 67.555 10.672C68.0243 10.448 68.4883 10.288 68.947 10.192C69.4057 10.096 69.8377 10.048 70.243 10.048C70.9577 10.048 71.5443 10.16 72.003 10.384C72.4723 10.608 72.819 10.9493 73.043 11.408C73.267 11.8667 73.379 12.4587 73.379 13.184V17.296C73.379 17.552 73.315 17.7547 73.187 17.904C73.059 18.0427 72.8723 18.112 72.627 18.112C72.3923 18.112 72.2057 18.0427 72.067 17.904C71.9283 17.7547 71.859 17.552 71.859 17.296V16.256H72.003C71.9177 16.6507 71.7577 16.992 71.523 17.28C71.299 17.5573 71.0163 17.7707 70.675 17.92C70.3337 18.0693 69.9443 18.144 69.507 18.144ZM76.4208 18.112C76.1541 18.112 75.9514 18.0427 75.8128 17.904C75.6741 17.7547 75.6048 17.552 75.6048 17.296V10.896C75.6048 10.6293 75.6741 10.4267 75.8128 10.288C75.9514 10.1493 76.1434 10.08 76.3888 10.08C76.6448 10.08 76.8368 10.1493 76.9648 10.288C77.1034 10.4267 77.1728 10.6293 77.1728 10.896V12.064H77.0128C77.1834 11.424 77.4981 10.9387 77.9568 10.608C78.4154 10.2773 79.0021 10.0853 79.7168 10.032C79.9088 10.0213 80.0581 10.0693 80.1648 10.176C80.2821 10.2827 80.3461 10.448 80.3568 10.672C80.3781 10.896 80.3301 11.0773 80.2128 11.216C80.0954 11.344 79.9141 11.4187 79.6688 11.44L79.3648 11.472C78.6714 11.536 78.1434 11.7547 77.7808 12.128C77.4181 12.5013 77.2368 13.0133 77.2368 13.664V17.296C77.2368 17.552 77.1674 17.7547 77.0288 17.904C76.9008 18.0427 76.6981 18.112 76.4208 18.112ZM85.1281 18.144C84.2748 18.144 83.5388 17.984 82.9201 17.664C82.3121 17.3333 81.8375 16.8693 81.4961 16.272C81.1655 15.664 81.0001 14.944 81.0001 14.112C81.0001 13.3013 81.1655 12.592 81.4961 11.984C81.8268 11.376 82.2801 10.9013 82.8561 10.56C83.4321 10.2187 84.0881 10.048 84.8241 10.048C85.3681 10.048 85.8535 10.1387 86.2801 10.32C86.7068 10.4907 87.0695 10.7467 87.3681 11.088C87.6775 11.4187 87.9068 11.824 88.0561 12.304C88.2161 12.784 88.2961 13.3227 88.2961 13.92C88.2961 14.1013 88.2428 14.24 88.1361 14.336C88.0295 14.4213 87.8695 14.464 87.6561 14.464H82.2801V13.472H87.2081L86.9361 13.696C86.9361 13.1627 86.8561 12.7093 86.6961 12.336C86.5468 11.9627 86.3175 11.68 86.0081 11.488C85.7095 11.2853 85.3361 11.184 84.8881 11.184C84.3868 11.184 83.9601 11.3013 83.6081 11.536C83.2668 11.7707 83.0055 12.096 82.8241 12.512C82.6428 12.928 82.5521 13.4133 82.5521 13.968V14.064C82.5521 15.0027 82.7708 15.712 83.2081 16.192C83.6561 16.6613 84.3015 16.896 85.1441 16.896C85.4641 16.896 85.8001 16.8533 86.1521 16.768C86.5148 16.6827 86.8561 16.5387 87.1761 16.336C87.3575 16.2293 87.5175 16.1813 87.6561 16.192C87.8055 16.2027 87.9228 16.2507 88.0081 16.336C88.1041 16.4213 88.1628 16.528 88.1841 16.656C88.2055 16.784 88.1841 16.9173 88.1201 17.056C88.0561 17.184 87.9441 17.3013 87.7841 17.408C87.4215 17.6533 87.0001 17.84 86.5201 17.968C86.0401 18.0853 85.5761 18.144 85.1281 18.144ZM90.8579 18.112C90.6019 18.112 90.4045 18.0427 90.2659 17.904C90.1272 17.7547 90.0579 17.552 90.0579 17.296V10.896C90.0579 10.6293 90.1272 10.4267 90.2659 10.288C90.4045 10.1493 90.5965 10.08 90.8419 10.08C91.0979 10.08 91.2899 10.1493 91.4179 10.288C91.5565 10.4267 91.6259 10.6293 91.6259 10.896V12.144L91.4499 11.856C91.6845 11.2587 92.0525 10.8107 92.5539 10.512C93.0552 10.2027 93.6312 10.048 94.2819 10.048C94.9005 10.048 95.4125 10.1653 95.8179 10.4C96.2339 10.624 96.5432 10.9707 96.7459 11.44C96.9485 11.8987 97.0499 12.48 97.0499 13.184V17.296C97.0499 17.552 96.9805 17.7547 96.8419 17.904C96.7032 18.0427 96.5059 18.112 96.2499 18.112C95.9832 18.112 95.7805 18.0427 95.6419 17.904C95.5032 17.7547 95.4339 17.552 95.4339 17.296V13.28C95.4339 12.608 95.3005 12.1173 95.0339 11.808C94.7779 11.4987 94.3725 11.344 93.8179 11.344C93.1672 11.344 92.6445 11.5467 92.2499 11.952C91.8659 12.3573 91.6739 12.9013 91.6739 13.584V17.296C91.6739 17.84 91.4019 18.112 90.8579 18.112ZM102.605 18.144C101.965 18.144 101.426 18.032 100.989 17.808C100.551 17.584 100.226 17.2533 100.013 16.816C99.7993 16.3787 99.6926 15.8453 99.6926 15.216V11.44H98.7326C98.5193 11.44 98.354 11.3867 98.2366 11.28C98.1193 11.1627 98.0606 11.008 98.0606 10.816C98.0606 10.6133 98.1193 10.4587 98.2366 10.352C98.354 10.2453 98.5193 10.192 98.7326 10.192H99.6926V8.544C99.6926 8.27733 99.762 8.07467 99.9006 7.936C100.05 7.79733 100.253 7.728 100.509 7.728C100.765 7.728 100.962 7.79733 101.101 7.936C101.239 8.07467 101.309 8.27733 101.309 8.544V10.192H103.181C103.394 10.192 103.559 10.2453 103.677 10.352C103.794 10.4587 103.853 10.6133 103.853 10.816C103.853 11.008 103.794 11.1627 103.677 11.28C103.559 11.3867 103.394 11.44 103.181 11.44H101.309V15.088C101.309 15.6533 101.426 16.08 101.661 16.368C101.906 16.656 102.301 16.8 102.845 16.8C103.037 16.8 103.202 16.784 103.341 16.752C103.49 16.7093 103.613 16.6827 103.709 16.672C103.826 16.672 103.922 16.7147 103.997 16.8C104.071 16.8747 104.109 17.024 104.109 17.248C104.109 17.408 104.077 17.5573 104.013 17.696C103.959 17.8347 103.858 17.9253 103.709 17.968C103.581 18.0107 103.405 18.048 103.181 18.08C102.967 18.1227 102.775 18.144 102.605 18.144Z" fill="#F8FAFC"/>
<path d="M56.336 38.072C56.184 38.08 56.068 38.04 55.988 37.952C55.9 37.864 55.856 37.756 55.856 37.628C55.856 37.532 55.888 37.444 55.952 37.364C56.008 37.284 56.1 37.24 56.228 37.232L56.6 37.208C57.008 37.176 57.32 37.036 57.536 36.788C57.752 36.532 57.86 36.184 57.86 35.744V29.96C57.86 29.792 57.9 29.668 57.98 29.588C58.068 29.5 58.192 29.456 58.352 29.456C58.512 29.456 58.632 29.5 58.712 29.588C58.8 29.668 58.844 29.792 58.844 29.96V35.756C58.844 36.212 58.764 36.608 58.604 36.944C58.444 37.272 58.204 37.528 57.884 37.712C57.572 37.896 57.188 38.004 56.732 38.036L56.336 38.072ZM63.2266 38.108C62.6586 38.108 62.1666 37.984 61.7506 37.736C61.3346 37.488 61.0106 37.14 60.7786 36.692C60.5546 36.236 60.4426 35.7 60.4426 35.084C60.4426 34.62 60.5066 34.204 60.6346 33.836C60.7626 33.46 60.9506 33.14 61.1986 32.876C61.4466 32.612 61.7386 32.412 62.0746 32.276C62.4186 32.132 62.8026 32.06 63.2266 32.06C63.7946 32.06 64.2866 32.184 64.7026 32.432C65.1186 32.68 65.4386 33.032 65.6626 33.488C65.8946 33.936 66.0106 34.468 66.0106 35.084C66.0106 35.548 65.9466 35.964 65.8186 36.332C65.6906 36.7 65.5026 37.02 65.2546 37.292C65.0066 37.556 64.7106 37.76 64.3666 37.904C64.0306 38.04 63.6506 38.108 63.2266 38.108ZM63.2266 37.328C63.5866 37.328 63.9026 37.24 64.1746 37.064C64.4466 36.888 64.6546 36.632 64.7986 36.296C64.9506 35.96 65.0266 35.556 65.0266 35.084C65.0266 34.356 64.8626 33.8 64.5346 33.416C64.2146 33.032 63.7786 32.84 63.2266 32.84C62.8586 32.84 62.5386 32.928 62.2666 33.104C62.0026 33.272 61.7946 33.524 61.6426 33.86C61.4986 34.188 61.4266 34.596 61.4266 35.084C61.4266 35.804 61.5906 36.36 61.9186 36.752C62.2466 37.136 62.6826 37.328 63.2266 37.328ZM67.9506 38.06C67.7906 38.06 67.6706 38.016 67.5906 37.928C67.5106 37.832 67.4706 37.7 67.4706 37.532V32.624C67.4706 32.456 67.5106 32.328 67.5906 32.24C67.6706 32.152 67.7906 32.108 67.9506 32.108C68.1026 32.108 68.2226 32.152 68.3106 32.24C68.3986 32.328 68.4426 32.456 68.4426 32.624V37.532C68.4426 37.7 68.3986 37.832 68.3106 37.928C68.2306 38.016 68.1106 38.06 67.9506 38.06ZM67.9506 30.764C67.7506 30.764 67.5946 30.712 67.4826 30.608C67.3706 30.496 67.3146 30.348 67.3146 30.164C67.3146 29.972 67.3706 29.828 67.4826 29.732C67.5946 29.628 67.7506 29.576 67.9506 29.576C68.1586 29.576 68.3146 29.628 68.4186 29.732C68.5306 29.828 68.5866 29.972 68.5866 30.164C68.5866 30.348 68.5306 30.496 68.4186 30.608C68.3146 30.712 68.1586 30.764 67.9506 30.764ZM70.7397 38.084C70.5797 38.084 70.4597 38.04 70.3797 37.952C70.2997 37.864 70.2597 37.74 70.2597 37.58V32.576C70.2597 32.416 70.2997 32.296 70.3797 32.216C70.4597 32.128 70.5757 32.084 70.7277 32.084C70.8797 32.084 70.9957 32.128 71.0757 32.216C71.1637 32.296 71.2077 32.416 71.2077 32.576V33.608L71.0757 33.464C71.2437 33 71.5157 32.652 71.8917 32.42C72.2757 32.18 72.7157 32.06 73.2117 32.06C73.6757 32.06 74.0597 32.144 74.3637 32.312C74.6757 32.48 74.9077 32.736 75.0597 33.08C75.2117 33.416 75.2877 33.844 75.2877 34.364V37.58C75.2877 37.74 75.2437 37.864 75.1557 37.952C75.0757 38.04 74.9597 38.084 74.8077 38.084C74.6477 38.084 74.5237 38.04 74.4357 37.952C74.3557 37.864 74.3157 37.74 74.3157 37.58V34.424C74.3157 33.88 74.2077 33.484 73.9917 33.236C73.7837 32.98 73.4477 32.852 72.9837 32.852C72.4477 32.852 72.0197 33.02 71.6997 33.356C71.3877 33.684 71.2317 34.124 71.2317 34.676V37.58C71.2317 37.916 71.0677 38.084 70.7397 38.084ZM82.0097 38.108C81.6097 38.108 81.2497 38.032 80.9297 37.88C80.6177 37.72 80.3697 37.504 80.1857 37.232C80.0017 36.96 79.9097 36.656 79.9097 36.32C79.9097 35.888 80.0177 35.548 80.2337 35.3C80.4577 35.052 80.8217 34.876 81.3257 34.772C81.8377 34.668 82.5337 34.616 83.4137 34.616H83.9537V35.252H83.4257C82.7777 35.252 82.2657 35.284 81.8897 35.348C81.5217 35.404 81.2617 35.504 81.1097 35.648C80.9657 35.792 80.8937 35.996 80.8937 36.26C80.8937 36.588 81.0057 36.856 81.2297 37.064C81.4617 37.272 81.7737 37.376 82.1657 37.376C82.4857 37.376 82.7657 37.3 83.0057 37.148C83.2537 36.996 83.4457 36.788 83.5817 36.524C83.7257 36.26 83.7977 35.956 83.7977 35.612V34.244C83.7977 33.748 83.6977 33.392 83.4977 33.176C83.2977 32.952 82.9697 32.84 82.5137 32.84C82.2337 32.84 81.9537 32.876 81.6737 32.948C81.3937 33.02 81.0977 33.136 80.7857 33.296C80.6737 33.352 80.5777 33.372 80.4977 33.356C80.4177 33.332 80.3537 33.288 80.3057 33.224C80.2577 33.16 80.2297 33.088 80.2217 33.008C80.2137 32.92 80.2297 32.836 80.2697 32.756C80.3177 32.676 80.3897 32.612 80.4857 32.564C80.8377 32.388 81.1857 32.26 81.5297 32.18C81.8737 32.1 82.2017 32.06 82.5137 32.06C83.0177 32.06 83.4337 32.144 83.7617 32.312C84.0897 32.472 84.3337 32.72 84.4937 33.056C84.6537 33.384 84.7337 33.808 84.7337 34.328V37.58C84.7337 37.74 84.6937 37.864 84.6137 37.952C84.5417 38.04 84.4337 38.084 84.2897 38.084C84.1377 38.084 84.0217 38.04 83.9417 37.952C83.8617 37.864 83.8217 37.74 83.8217 37.58V36.644H83.9297C83.8657 36.948 83.7417 37.208 83.5577 37.424C83.3817 37.64 83.1617 37.808 82.8977 37.928C82.6337 38.048 82.3377 38.108 82.0097 38.108ZM88.505 38.108C88.145 38.108 87.781 38.064 87.413 37.976C87.053 37.888 86.717 37.736 86.405 37.52C86.325 37.464 86.269 37.4 86.237 37.328C86.205 37.248 86.193 37.172 86.201 37.1C86.217 37.02 86.249 36.952 86.297 36.896C86.353 36.84 86.417 36.808 86.489 36.8C86.569 36.784 86.657 36.8 86.753 36.848C87.065 37.04 87.365 37.176 87.653 37.256C87.949 37.328 88.241 37.364 88.529 37.364C88.985 37.364 89.329 37.28 89.561 37.112C89.793 36.944 89.909 36.716 89.909 36.428C89.909 36.204 89.833 36.028 89.681 35.9C89.529 35.764 89.289 35.66 88.961 35.588L87.869 35.348C87.365 35.244 86.989 35.064 86.741 34.808C86.501 34.552 86.381 34.22 86.381 33.812C86.381 33.452 86.473 33.144 86.657 32.888C86.849 32.624 87.117 32.42 87.461 32.276C87.805 32.132 88.205 32.06 88.661 32.06C89.013 32.06 89.345 32.108 89.657 32.204C89.977 32.292 90.265 32.436 90.521 32.636C90.601 32.692 90.653 32.76 90.677 32.84C90.709 32.912 90.713 32.988 90.689 33.068C90.673 33.14 90.637 33.204 90.581 33.26C90.525 33.308 90.457 33.336 90.377 33.344C90.297 33.352 90.213 33.328 90.125 33.272C89.885 33.112 89.641 32.996 89.393 32.924C89.145 32.844 88.901 32.804 88.661 32.804C88.213 32.804 87.873 32.892 87.641 33.068C87.409 33.244 87.293 33.476 87.293 33.764C87.293 33.988 87.365 34.172 87.509 34.316C87.653 34.46 87.877 34.564 88.181 34.628L89.273 34.856C89.793 34.968 90.181 35.148 90.437 35.396C90.701 35.636 90.833 35.964 90.833 36.38C90.833 36.908 90.621 37.328 90.197 37.64C89.773 37.952 89.209 38.108 88.505 38.108ZM97.2441 38.108C96.8441 38.108 96.4841 38.032 96.1641 37.88C95.8521 37.72 95.6041 37.504 95.4201 37.232C95.2361 36.96 95.1441 36.656 95.1441 36.32C95.1441 35.888 95.2521 35.548 95.4681 35.3C95.6921 35.052 96.0561 34.876 96.5601 34.772C97.0721 34.668 97.7681 34.616 98.6481 34.616H99.1881V35.252H98.6601C98.0121 35.252 97.5001 35.284 97.1241 35.348C96.7561 35.404 96.4961 35.504 96.3441 35.648C96.2001 35.792 96.1281 35.996 96.1281 36.26C96.1281 36.588 96.2401 36.856 96.4641 37.064C96.6961 37.272 97.0081 37.376 97.4001 37.376C97.7201 37.376 98.0001 37.3 98.2401 37.148C98.4881 36.996 98.6801 36.788 98.8161 36.524C98.9601 36.26 99.0321 35.956 99.0321 35.612V34.244C99.0321 33.748 98.9321 33.392 98.7321 33.176C98.5321 32.952 98.2041 32.84 97.7481 32.84C97.4681 32.84 97.1881 32.876 96.9081 32.948C96.6281 33.02 96.3321 33.136 96.0201 33.296C95.9081 33.352 95.8121 33.372 95.7321 33.356C95.6521 33.332 95.5881 33.288 95.5401 33.224C95.4921 33.16 95.4641 33.088 95.4561 33.008C95.4481 32.92 95.4641 32.836 95.5041 32.756C95.5521 32.676 95.6241 32.612 95.7201 32.564C96.0721 32.388 96.4201 32.26 96.7641 32.18C97.1081 32.1 97.4361 32.06 97.7481 32.06C98.2521 32.06 98.6681 32.144 98.9961 32.312C99.3241 32.472 99.5681 32.72 99.7281 33.056C99.8881 33.384 99.9681 33.808 99.9681 34.328V37.58C99.9681 37.74 99.9281 37.864 99.8481 37.952C99.7761 38.04 99.6681 38.084 99.5241 38.084C99.3721 38.084 99.2561 38.04 99.1761 37.952C99.0961 37.864 99.0561 37.74 99.0561 37.58V36.644H99.1641C99.1001 36.948 98.9761 37.208 98.7921 37.424C98.6161 37.64 98.3961 37.808 98.1321 37.928C97.8681 38.048 97.5721 38.108 97.2441 38.108ZM105.345 40.244C105.185 40.244 105.065 40.2 104.985 40.112C104.905 40.032 104.865 39.912 104.865 39.752V32.576C104.865 32.416 104.905 32.296 104.985 32.216C105.065 32.128 105.181 32.084 105.333 32.084C105.493 32.084 105.613 32.128 105.693 32.216C105.781 32.296 105.825 32.416 105.825 32.576V33.716L105.693 33.548C105.821 33.092 106.073 32.732 106.449 32.468C106.833 32.196 107.289 32.06 107.817 32.06C108.337 32.06 108.789 32.184 109.173 32.432C109.565 32.672 109.865 33.02 110.073 33.476C110.289 33.924 110.397 34.46 110.397 35.084C110.397 35.7 110.289 36.236 110.073 36.692C109.865 37.14 109.569 37.488 109.185 37.736C108.801 37.984 108.345 38.108 107.817 38.108C107.289 38.108 106.837 37.976 106.461 37.712C106.085 37.44 105.829 37.08 105.693 36.632H105.837V39.752C105.837 39.912 105.793 40.032 105.705 40.112C105.617 40.2 105.497 40.244 105.345 40.244ZM107.613 37.328C107.981 37.328 108.297 37.24 108.561 37.064C108.833 36.888 109.041 36.632 109.185 36.296C109.337 35.96 109.413 35.556 109.413 35.084C109.413 34.356 109.249 33.8 108.921 33.416C108.601 33.032 108.165 32.84 107.613 32.84C107.253 32.84 106.937 32.928 106.665 33.104C106.393 33.272 106.181 33.524 106.029 33.86C105.885 34.188 105.813 34.596 105.813 35.084C105.813 35.804 105.977 36.36 106.305 36.752C106.633 37.136 107.069 37.328 107.613 37.328ZM113.697 38.108C113.297 38.108 112.937 38.032 112.617 37.88C112.305 37.72 112.057 37.504 111.873 37.232C111.689 36.96 111.597 36.656 111.597 36.32C111.597 35.888 111.705 35.548 111.921 35.3C112.145 35.052 112.509 34.876 113.013 34.772C113.525 34.668 114.221 34.616 115.101 34.616H115.641V35.252H115.113C114.465 35.252 113.953 35.284 113.577 35.348C113.209 35.404 112.949 35.504 112.797 35.648C112.653 35.792 112.581 35.996 112.581 36.26C112.581 36.588 112.693 36.856 112.917 37.064C113.149 37.272 113.461 37.376 113.853 37.376C114.173 37.376 114.453 37.3 114.693 37.148C114.941 36.996 115.133 36.788 115.269 36.524C115.413 36.26 115.485 35.956 115.485 35.612V34.244C115.485 33.748 115.385 33.392 115.185 33.176C114.985 32.952 114.657 32.84 114.201 32.84C113.921 32.84 113.641 32.876 113.361 32.948C113.081 33.02 112.785 33.136 112.473 33.296C112.361 33.352 112.265 33.372 112.185 33.356C112.105 33.332 112.041 33.288 111.993 33.224C111.945 33.16 111.917 33.088 111.909 33.008C111.901 32.92 111.917 32.836 111.957 32.756C112.005 32.676 112.077 32.612 112.173 32.564C112.525 32.388 112.873 32.26 113.217 32.18C113.561 32.1 113.889 32.06 114.201 32.06C114.705 32.06 115.121 32.144 115.449 32.312C115.777 32.472 116.021 32.72 116.181 33.056C116.341 33.384 116.421 33.808 116.421 34.328V37.58C116.421 37.74 116.381 37.864 116.301 37.952C116.229 38.04 116.121 38.084 115.977 38.084C115.825 38.084 115.709 38.04 115.629 37.952C115.549 37.864 115.509 37.74 115.509 37.58V36.644H115.617C115.553 36.948 115.429 37.208 115.245 37.424C115.069 37.64 114.849 37.808 114.585 37.928C114.321 38.048 114.025 38.108 113.697 38.108ZM118.717 38.084C118.557 38.084 118.433 38.04 118.345 37.952C118.265 37.864 118.225 37.74 118.225 37.58V32.576C118.225 32.416 118.265 32.296 118.345 32.216C118.425 32.128 118.541 32.084 118.693 32.084C118.845 32.084 118.961 32.128 119.041 32.216C119.129 32.296 119.173 32.416 119.173 32.576V33.548H119.053C119.181 33.076 119.425 32.712 119.785 32.456C120.145 32.2 120.589 32.064 121.117 32.048C121.237 32.04 121.333 32.068 121.405 32.132C121.477 32.188 121.517 32.288 121.525 32.432C121.533 32.568 121.501 32.676 121.429 32.756C121.357 32.836 121.245 32.884 121.093 32.9L120.901 32.924C120.357 32.972 119.937 33.148 119.641 33.452C119.353 33.748 119.209 34.156 119.209 34.676V37.58C119.209 37.74 119.165 37.864 119.076 37.952C118.997 38.04 118.877 38.084 118.717 38.084ZM125.083 38.108C124.467 38.108 123.935 37.988 123.487 37.748C123.047 37.5 122.703 37.152 122.455 36.704C122.215 36.256 122.095 35.72 122.095 35.096C122.095 34.488 122.215 33.96 122.455 33.512C122.695 33.056 123.023 32.7 123.439 32.444C123.863 32.188 124.351 32.06 124.903 32.06C125.295 32.06 125.647 32.128 125.959 32.264C126.271 32.392 126.535 32.58 126.751 32.828C126.975 33.076 127.143 33.376 127.255 33.728C127.375 34.08 127.435 34.476 127.435 34.916C127.435 35.044 127.399 35.14 127.327 35.204C127.255 35.26 127.151 35.288 127.015 35.288H122.839V34.652H126.787L126.595 34.808C126.595 34.376 126.531 34.012 126.403 33.716C126.275 33.412 126.087 33.18 125.839 33.02C125.599 32.86 125.295 32.78 124.927 32.78C124.519 32.78 124.171 32.876 123.883 33.068C123.603 33.252 123.391 33.512 123.247 33.848C123.103 34.176 123.031 34.56 123.031 35V35.072C123.031 35.808 123.207 36.368 123.559 36.752C123.919 37.136 124.427 37.328 125.083 37.328C125.355 37.328 125.623 37.292 125.887 37.22C126.159 37.148 126.423 37.028 126.679 36.86C126.791 36.788 126.891 36.756 126.979 36.764C127.075 36.764 127.151 36.792 127.207 36.848C127.263 36.896 127.299 36.96 127.315 37.04C127.339 37.112 127.331 37.192 127.291 37.28C127.259 37.368 127.191 37.444 127.087 37.508C126.823 37.7 126.511 37.848 126.151 37.952C125.791 38.056 125.435 38.108 125.083 38.108ZM129.322 38.084C129.162 38.084 129.042 38.04 128.962 37.952C128.882 37.864 128.842 37.74 128.842 37.58V32.576C128.842 32.416 128.882 32.296 128.962 32.216C129.042 32.128 129.158 32.084 129.31 32.084C129.462 32.084 129.578 32.128 129.658 32.216C129.746 32.296 129.79 32.416 129.79 32.576V33.608L129.658 33.464C129.826 33 130.098 32.652 130.474 32.42C130.858 32.18 131.298 32.06 131.794 32.06C132.258 32.06 132.642 32.144 132.946 32.312C133.258 32.48 133.49 32.736 133.642 33.08C133.794 33.416 133.87 33.844 133.87 34.364V37.58C133.87 37.74 133.826 37.864 133.738 37.952C133.658 38.04 133.542 38.084 133.39 38.084C133.23 38.084 133.106 38.04 133.018 37.952C132.938 37.864 132.898 37.74 132.898 37.58V34.424C132.898 33.88 132.79 33.484 132.574 33.236C132.366 32.98 132.03 32.852 131.566 32.852C131.03 32.852 130.602 33.02 130.282 33.356C129.97 33.684 129.814 34.124 129.814 34.676V37.58C129.814 37.916 129.65 38.084 129.322 38.084ZM138.002 38.108C137.546 38.108 137.162 38.028 136.85 37.868C136.546 37.7 136.318 37.46 136.166 37.148C136.014 36.828 135.938 36.44 135.938 35.984V32.924H135.134C134.998 32.924 134.894 32.892 134.822 32.828C134.75 32.756 134.714 32.66 134.714 32.54C134.714 32.42 134.75 32.328 134.822 32.264C134.894 32.2 134.998 32.168 135.134 32.168H135.938V30.788C135.938 30.628 135.982 30.508 136.07 30.428C136.158 30.34 136.278 30.296 136.43 30.296C136.582 30.296 136.698 30.34 136.778 30.428C136.866 30.508 136.91 30.628 136.91 30.788V32.168H138.422C138.558 32.168 138.662 32.2 138.734 32.264C138.806 32.328 138.842 32.42 138.842 32.54C138.842 32.66 138.806 32.756 138.734 32.828C138.662 32.892 138.558 32.924 138.422 32.924H136.91V35.888C136.91 36.344 137.006 36.692 137.198 36.932C137.39 37.164 137.702 37.28 138.134 37.28C138.286 37.28 138.414 37.264 138.518 37.232C138.63 37.2 138.722 37.184 138.794 37.184C138.866 37.176 138.926 37.2 138.974 37.256C139.022 37.312 139.046 37.408 139.046 37.544C139.046 37.64 139.026 37.728 138.986 37.808C138.954 37.888 138.894 37.944 138.806 37.976C138.71 38.008 138.582 38.036 138.422 38.06C138.27 38.092 138.13 38.108 138.002 38.108Z" fill="#E2E8F0"/>
<defs>
<clipPath id="clip0_1905_9245">
<rect width="20" height="20" fill="white" transform="translate(12 12)"/>
</clipPath>
</defs>
</svg>
