<svg width="20" height="20" viewBox="0 0 20 20" fill="none" xmlns="http://www.w3.org/2000/svg">
<g clip-path="url(#clip0_836_4178)">
<path d="M7.50002 9.99984C9.10835 9.99984 10.4167 8.6915 10.4167 7.08317C10.4167 5.47484 9.10835 4.1665 7.50002 4.1665C5.89169 4.1665 4.58335 5.47484 4.58335 7.08317C4.58335 8.6915 5.89169 9.99984 7.50002 9.99984ZM7.50002 5.83317C8.19169 5.83317 8.75002 6.3915 8.75002 7.08317C8.75002 7.77484 8.19169 8.33317 7.50002 8.33317C6.80835 8.33317 6.25002 7.77484 6.25002 7.08317C6.25002 6.3915 6.80835 5.83317 7.50002 5.83317ZM7.50002 11.4582C5.55002 11.4582 1.66669 12.4332 1.66669 14.3748V14.9998C1.66669 15.4582 2.04169 15.8332 2.50002 15.8332H12.5C12.9584 15.8332 13.3334 15.4582 13.3334 14.9998V14.3748C13.3334 12.4332 9.45002 11.4582 7.50002 11.4582ZM3.61669 14.1665C4.31669 13.6832 6.00835 13.1248 7.50002 13.1248C8.99169 13.1248 10.6834 13.6832 11.3834 14.1665H3.61669ZM13.3667 11.5082C14.3334 12.2082 15 13.1415 15 14.3748V15.8332H17.5C17.9584 15.8332 18.3334 15.4582 18.3334 14.9998V14.3748C18.3334 12.6915 15.4167 11.7332 13.3667 11.5082ZM12.5 9.99984C14.1084 9.99984 15.4167 8.6915 15.4167 7.08317C15.4167 5.47484 14.1084 4.1665 12.5 4.1665C12.05 4.1665 11.6334 4.27484 11.25 4.45817C11.775 5.19984 12.0834 6.10817 12.0834 7.08317C12.0834 8.05817 11.775 8.9665 11.25 9.70817C11.6334 9.8915 12.05 9.99984 12.5 9.99984Z" fill="#F8FAFC"/>
</g>
<defs>
<clipPath id="clip0_836_4178">
<rect width="20" height="20" fill="white"/>
</clipPath>
</defs>
</svg>
