<svg width="17" height="17" viewBox="0 0 17 17" fill="none" xmlns="http://www.w3.org/2000/svg">
<path d="M6.25 3.75V6.25H3.75V3.75H6.25ZM7.5 2.5H2.5V7.5H7.5V2.5ZM6.25 10.4167V12.9167H3.75V10.4167H6.25ZM7.5 9.16667H2.5V14.1667H7.5V9.16667ZM12.9167 3.75V6.25H10.4167V3.75H12.9167ZM14.1667 2.5H9.16667V7.5H14.1667V2.5ZM9.16667 9.16667H10.4167V10.4167H9.16667V9.16667ZM10.4167 10.4167H11.6667V11.6667H10.4167V10.4167ZM11.6667 9.16667H12.9167V10.4167H11.6667V9.16667ZM9.16667 11.6667H10.4167V12.9167H9.16667V11.6667ZM10.4167 12.9167H11.6667V14.1667H10.4167V12.9167ZM11.6667 11.6667H12.9167V12.9167H11.6667V11.6667ZM12.9167 10.4167H14.1667V11.6667H12.9167V10.4167ZM12.9167 12.9167H14.1667V14.1667H12.9167V12.9167ZM15.8333 4.16667C15.375 4.16667 15 3.79167 15 3.33333V1.66667H13.3333C12.875 1.66667 12.5 1.29167 12.5 0.833333C12.5 0.375 12.875 0 13.3333 0H15.8333C16.2917 0 16.6667 0.375 16.6667 0.833333V3.33333C16.6667 3.79167 16.2917 4.16667 15.8333 4.16667ZM16.6667 15.8333V13.3333C16.6667 12.875 16.2917 12.5 15.8333 12.5C15.375 12.5 15 12.875 15 13.3333V15H13.3333C12.875 15 12.5 15.375 12.5 15.8333C12.5 16.2917 12.875 16.6667 13.3333 16.6667H15.8333C16.2917 16.6667 16.6667 16.2917 16.6667 15.8333ZM0.833333 16.6667H3.33333C3.79167 16.6667 4.16667 16.2917 4.16667 15.8333C4.16667 15.375 3.79167 15 3.33333 15H1.66667V13.3333C1.66667 12.875 1.29167 12.5 0.833333 12.5C0.375 12.5 0 12.875 0 13.3333V15.8333C0 16.2917 0.375 16.6667 0.833333 16.6667ZM0 0.833333V3.33333C0 3.79167 0.375 4.16667 0.833333 4.16667C1.29167 4.16667 1.66667 3.79167 1.66667 3.33333V1.66667H3.33333C3.79167 1.66667 4.16667 1.29167 4.16667 0.833333C4.16667 0.375 3.79167 0 3.33333 0H0.833333C0.375 0 0 0.375 0 0.833333Z" fill="white"/>
</svg>
