<svg width="32" height="32" viewBox="0 0 32 32" fill="none" xmlns="http://www.w3.org/2000/svg">
<g clip-path="url(#clip0_0_26)">
<path d="M21.6533 10.3467C20.0933 8.78675 18.0533 8.00008 16 8.00008V16.0001L10.3466 21.6534C13.4666 24.7734 18.5333 24.7734 21.6666 21.6534C24.7866 18.5334 24.7866 13.4667 21.6533 10.3467ZM16 2.66675C8.63996 2.66675 2.66663 8.64008 2.66663 16.0001C2.66663 23.3601 8.63996 29.3334 16 29.3334C23.36 29.3334 29.3333 23.3601 29.3333 16.0001C29.3333 8.64008 23.36 2.66675 16 2.66675ZM16 26.6667C10.1066 26.6667 5.33329 21.8934 5.33329 16.0001C5.33329 10.1067 10.1066 5.33341 16 5.33341C21.8933 5.33341 26.6666 10.1067 26.6666 16.0001C26.6666 21.8934 21.8933 26.6667 16 26.6667Z" fill="#ECFDF5"/>
</g>
<defs>
<clipPath id="clip0_0_26">
<rect width="32" height="32" fill="white"/>
</clipPath>
</defs>
</svg>
