<svg width="32" height="32" viewBox="0 0 32 32" fill="none" xmlns="http://www.w3.org/2000/svg">
<g clip-path="url(#clip0_0_6)">
<path fill-rule="evenodd" clip-rule="evenodd" d="M22.2267 17.5066C24.0534 18.7466 25.3334 20.4266 25.3334 22.6666V26.6666H29.3334C30.0667 26.6666 30.6667 26.0666 30.6667 25.3333V22.6666C30.6667 19.7599 25.9067 18.0399 22.2267 17.5066Z" fill="#ECFDF5"/>
<path d="M12.0001 15.9999C14.9456 15.9999 17.3334 13.6121 17.3334 10.6666C17.3334 7.72107 14.9456 5.33325 12.0001 5.33325C9.05456 5.33325 6.66675 7.72107 6.66675 10.6666C6.66675 13.6121 9.05456 15.9999 12.0001 15.9999Z" fill="#ECFDF5"/>
<path fill-rule="evenodd" clip-rule="evenodd" d="M20 15.9999C22.9467 15.9999 25.3334 13.6133 25.3334 10.6666C25.3334 7.71992 22.9467 5.33325 20 5.33325C19.3734 5.33325 18.7867 5.46658 18.2267 5.65325C19.3334 7.02658 20 8.77325 20 10.6666C20 12.5599 19.3334 14.3066 18.2267 15.6799C18.7867 15.8666 19.3734 15.9999 20 15.9999Z" fill="#ECFDF5"/>
<path fill-rule="evenodd" clip-rule="evenodd" d="M12 17.3333C8.44004 17.3333 1.33337 19.1199 1.33337 22.6666V25.3333C1.33337 26.0666 1.93337 26.6666 2.66671 26.6666H21.3334C22.0667 26.6666 22.6667 26.0666 22.6667 25.3333V22.6666C22.6667 19.1199 15.56 17.3333 12 17.3333Z" fill="#ECFDF5"/>
</g>
<defs>
<clipPath id="clip0_0_6">
<rect width="32" height="32" fill="white"/>
</clipPath>
</defs>
</svg>
