<svg width="32" height="32" viewBox="0 0 32 32" fill="none" xmlns="http://www.w3.org/2000/svg">
<g clip-path="url(#clip0_0_33)">
<path d="M19.5333 6.64007L12.8667 4.30674C12.3067 4.10674 11.6933 4.10674 11.1333 4.29341L5.81333 6.08007C4.73333 6.45341 4 7.46674 4 8.61341V24.4134C4 26.2934 5.88 27.5734 7.62667 26.8934L11.5333 25.3734C11.8267 25.2534 12.16 25.2534 12.4533 25.3601L19.12 27.6934C19.68 27.8934 20.2933 27.8934 20.8533 27.7067L26.1733 25.9201C27.2533 25.5601 27.9867 24.5334 27.9867 23.3867V7.58674C27.9867 5.70674 26.1067 4.42674 24.36 5.10674L20.4533 6.62674C20.16 6.73341 19.84 6.74674 19.5333 6.64007ZM20 25.1867L12 22.3734V6.81341L20 9.62674V25.1867Z" fill="#FFF8E6"/>
</g>
<defs>
<clipPath id="clip0_0_33">
<rect width="32" height="32" fill="white"/>
</clipPath>
</defs>
</svg>
