<svg width="14" height="14" viewBox="0 0 14 14" fill="none" xmlns="http://www.w3.org/2000/svg">
<path d="M6.66667 0C2.98667 0 0 2.98667 0 6.66667C0 10.3467 2.98667 13.3333 6.66667 13.3333C10.3467 13.3333 13.3333 10.3467 13.3333 6.66667C13.3333 2.98667 10.3467 0 6.66667 0ZM6 11.9533C3.36667 11.6267 1.33333 9.38667 1.33333 6.66667C1.33333 6.25333 1.38667 5.86 1.47333 5.47333L4.66667 8.66667V9.33333C4.66667 10.0667 5.26667 10.6667 6 10.6667V11.9533ZM10.6 10.26C10.4267 9.72 9.93333 9.33333 9.33333 9.33333H8.66667V7.33333C8.66667 6.96667 8.36667 6.66667 8 6.66667H4V5.33333H5.33333C5.7 5.33333 6 5.03333 6 4.66667V3.33333H7.33333C8.06667 3.33333 8.66667 2.73333 8.66667 2V1.72667C10.62 2.52 12 4.43333 12 6.66667C12 8.05333 11.4667 9.31333 10.6 10.26Z" fill="#0F172A"/>
</svg>
